<svg width="553" height="406" viewBox="0 0 553 406" fill="none" xmlns="http://www.w3.org/2000/svg">
<g clip-path="url(#clip0)">
<path opacity="0.2" d="M73.1845 205.693C65.9115 207.892 59.104 213.216 57.2872 220.603C55.2092 229.092 60.0011 237.65 60.6937 246.366C62.9307 274.924 22.3357 295.073 28.1269 323.126C30.4264 334.28 39.7206 342.485 48.8786 349.264C63.5496 360.088 79.8273 369.651 97.8538 372.35C125.214 376.453 153.801 364.395 180.395 372.015C201.845 378.163 218.259 396.181 239.561 402.829C255.777 407.892 273.247 405.898 290.092 403.846C299.176 402.744 308.692 401.471 316.022 396.016C329.648 385.862 330.506 365.81 339.629 351.44C353.721 329.28 384.619 324.927 410.526 329.234C436.433 333.541 461.59 344.144 487.838 343.281C493.447 343.093 499.193 342.332 504.087 339.576C510.037 336.229 514.057 330.331 517.611 324.495C539.825 287.884 552.018 246.066 552.966 203.244C553.119 195.886 552.858 188.209 549.4 181.715C545.029 173.498 536.291 168.583 527.593 165.276C506.705 157.321 483.631 156.02 463.163 147.048C443.422 138.394 427.434 123.217 410.242 110.211C375.982 84.3413 336.272 66.6424 294.14 58.4635C284.267 56.5543 274.019 55.1906 264.208 57.3953C252.904 59.9352 243.161 66.9867 234.4 74.578C211.094 94.7724 192.414 119.689 170.936 141.82C156.119 157.083 139.985 171.007 122.722 183.431C114.773 189.164 106.325 195.971 97.4677 200.21C89.36 204.085 81.7577 203.108 73.1845 205.693Z" fill="#1400FF"/>
<path d="M177.074 26.2174C177.074 26.2174 155.13 55.3838 170.828 89.38C186.527 123.376 143.468 177.999 143.468 177.999" stroke="#535461" stroke-width="2" stroke-miterlimit="10"/>
<path d="M186.913 15.302C185.17 22.8081 176.829 27.2799 176.829 27.2799C176.829 27.2799 171.322 19.5806 173.065 12.0745C174.808 4.56843 179.31 -0.7955 183.149 0.0965956C186.987 0.988691 188.656 7.79589 186.913 15.302Z" fill="#8ED16F"/>
<path d="M181.311 13.994C181.859 11.6375 181.587 9.56048 180.705 9.35492C179.822 9.14937 178.662 10.8931 178.115 13.2496C177.567 15.6062 177.838 17.6832 178.721 17.8888C179.603 18.0943 180.763 16.3506 181.311 13.994Z" fill="#8ED16F"/>
<path opacity="0.3" d="M181.311 13.994C181.859 11.6375 181.587 9.56048 180.705 9.35492C179.822 9.14937 178.662 10.8931 178.115 13.2496C177.567 15.6062 177.838 17.6832 178.721 17.8888C179.603 18.0943 180.763 16.3506 181.311 13.994Z" fill="black"/>
<path d="M183.12 48.6504C175.876 51.2642 167.592 46.6844 167.592 46.6844C167.592 46.6844 171.055 37.8714 178.306 35.2633C185.556 32.6552 192.5 33.5587 193.834 37.2294C195.168 40.9 190.365 46.0367 183.12 48.6504Z" fill="#8ED16F"/>
<path d="M181.085 42.8633C183.358 42.0407 184.95 40.6827 184.642 39.8302C184.334 38.9777 182.242 38.9534 179.969 39.7761C177.697 40.5987 176.104 41.9567 176.412 42.8092C176.721 43.6617 178.813 43.6859 181.085 42.8633Z" fill="#8ED16F"/>
<path opacity="0.3" d="M181.085 42.8633C183.358 42.0407 184.95 40.6827 184.642 39.8302C184.334 38.9777 182.242 38.9534 179.969 39.7761C177.697 40.5987 176.104 41.9567 176.412 42.8092C176.721 43.6617 178.813 43.6859 181.085 42.8633Z" fill="black"/>
<path d="M181.434 75.2258C174.189 77.8396 165.906 73.2598 165.906 73.2598C165.906 73.2598 169.369 64.4468 176.619 61.8387C183.87 59.2306 190.813 60.134 192.148 63.8047C193.482 67.4754 188.679 72.6177 181.434 75.2258Z" fill="#8ED16F"/>
<path d="M179.483 69.8403C181.758 69.0207 183.353 67.6646 183.046 66.8112C182.739 65.9579 180.646 65.9306 178.372 66.7502C176.097 67.5698 174.502 68.9259 174.809 69.7792C175.116 70.6325 177.209 70.6599 179.483 69.8403Z" fill="#8ED16F"/>
<path opacity="0.3" d="M179.483 69.8403C181.758 69.0207 183.353 67.6646 183.046 66.8112C182.739 65.9579 180.646 65.9306 178.372 66.7502C176.097 67.5698 174.502 68.9259 174.809 69.7792C175.116 70.6325 177.209 70.6599 179.483 69.8403Z" fill="black"/>
<path d="M189.899 106.404C182.655 109.017 174.371 104.438 174.371 104.438C174.371 104.438 177.834 95.6247 185.085 93.0166C192.335 90.4085 199.279 91.3119 200.613 94.9826C201.947 98.6532 197.144 103.807 189.899 106.404Z" fill="#8ED16F"/>
<path d="M187.95 101.032C190.224 100.212 191.82 98.8563 191.513 98.003C191.206 97.1497 189.113 97.1223 186.838 97.9419C184.563 98.7615 182.968 100.118 183.275 100.971C183.582 101.824 185.675 101.852 187.95 101.032Z" fill="#8ED16F"/>
<path opacity="0.3" d="M187.95 101.032C190.224 100.212 191.82 98.8563 191.513 98.003C191.206 97.1497 189.113 97.1223 186.838 97.9419C184.563 98.7615 182.968 100.118 183.275 100.971C183.582 101.824 185.675 101.852 187.95 101.032Z" fill="black"/>
<path d="M184.392 134.917C177.147 137.53 168.864 132.951 168.864 132.951C168.864 132.951 172.327 124.138 179.577 121.53C186.828 118.921 193.771 119.825 195.106 123.496C196.44 127.166 191.642 132.309 184.392 134.917Z" fill="#8ED16F"/>
<path d="M182.458 129.061C184.73 128.238 186.323 126.88 186.015 126.027C185.707 125.175 183.615 125.151 181.342 125.973C179.07 126.796 177.477 128.154 177.785 129.006C178.093 129.859 180.185 129.883 182.458 129.061Z" fill="#8ED16F"/>
<path opacity="0.3" d="M182.458 129.061C184.73 128.238 186.323 126.88 186.015 126.027C185.707 125.175 183.615 125.151 181.342 125.973C179.07 126.796 177.477 128.154 177.785 129.006C178.093 129.859 180.185 129.883 182.458 129.061Z" fill="black"/>
<path d="M150.411 56.202C155.76 61.7478 165.213 61.3159 165.213 61.3159C165.213 61.3159 165.991 51.8779 160.643 46.3321C155.294 40.7864 148.668 38.5021 145.841 41.2182C143.014 43.9343 145.063 50.6562 150.411 56.202Z" fill="#8ED16F"/>
<path d="M158.771 54.2339C159.423 53.604 158.59 51.6822 156.911 49.9415C155.232 48.2007 153.342 47.3002 152.69 47.9301C152.038 48.56 152.871 50.4818 154.55 52.2225C156.229 53.9633 158.119 54.8638 158.771 54.2339Z" fill="#8ED16F"/>
<path opacity="0.3" d="M158.771 54.2339C159.423 53.604 158.59 51.6822 156.911 49.9415C155.232 48.2007 153.342 47.3002 152.69 47.9301C152.038 48.56 152.871 50.4818 154.55 52.2225C156.229 53.9633 158.119 54.8638 158.771 54.2339Z" fill="black"/>
<path d="M147.34 144.269C152.688 149.815 162.141 149.383 162.141 149.383C162.141 149.383 162.919 139.945 157.571 134.4C152.223 128.854 145.597 126.57 142.769 129.286C139.942 132.002 141.992 138.724 147.34 144.269Z" fill="#8ED16F"/>
<path d="M155.691 142.309C156.343 141.679 155.511 139.757 153.832 138.017C152.152 136.276 150.263 135.375 149.611 136.005C148.959 136.635 149.791 138.557 151.471 140.298C153.15 142.038 155.039 142.939 155.691 142.309Z" fill="#8ED16F"/>
<path opacity="0.3" d="M155.691 142.309C156.343 141.679 155.511 139.757 153.832 138.017C152.152 136.276 150.263 135.375 149.611 136.005C148.959 136.635 149.791 138.557 151.471 140.298C153.15 142.038 155.039 142.939 155.691 142.309Z" fill="black"/>
<path d="M154.431 87.3287C161.324 90.7721 170.084 87.1924 170.084 87.1924C170.084 87.1924 167.671 78.0385 160.784 74.5951C153.897 71.1517 146.886 71.1858 145.131 74.7314C143.377 78.2771 147.539 83.8854 154.431 87.3287Z" fill="#8ED16F"/>
<path d="M161.635 82.6658C162.04 81.8543 160.615 80.3207 158.451 79.2403C156.288 78.16 154.206 77.9421 153.802 78.7536C153.397 79.5651 154.823 81.0987 156.986 82.179C159.149 83.2594 161.231 83.4773 161.635 82.6658Z" fill="#8ED16F"/>
<path opacity="0.3" d="M161.635 82.6658C162.04 81.8543 160.615 80.3207 158.451 79.2403C156.288 78.16 154.206 77.9421 153.802 78.7536C153.397 79.5651 154.823 81.0987 156.986 82.179C159.149 83.2594 161.231 83.4773 161.635 82.6658Z" fill="black"/>
<path d="M157.321 118.336C164.214 121.78 172.974 118.2 172.974 118.2C172.974 118.2 170.561 109.046 163.674 105.602C156.787 102.159 149.776 102.193 148.021 105.739C146.267 109.285 150.457 114.927 157.321 118.336Z" fill="#8ED16F"/>
<path d="M164.528 113.677C164.932 112.866 163.507 111.332 161.344 110.252C159.18 109.171 157.099 108.954 156.694 109.765C156.29 110.577 157.715 112.11 159.878 113.191C162.042 114.271 164.123 114.489 164.528 113.677Z" fill="#8ED16F"/>
<path opacity="0.3" d="M164.528 113.677C164.932 112.866 163.507 111.332 161.344 110.252C159.18 109.171 157.099 108.954 156.694 109.765C156.29 110.577 157.715 112.11 159.878 113.191C162.042 114.271 164.123 114.489 164.528 113.677Z" fill="black"/>
<path d="M71.3847 88.9084C71.3847 88.9084 111.463 129.019 88.8377 188.539C66.2124 248.059 127.622 347.036 127.622 347.036C127.622 347.036 126.963 346.94 125.742 346.724C43.4168 332.183 2.53794 237.962 48.2995 167.97C65.2926 141.945 79.288 111.421 71.3847 88.9084Z" fill="#8ED16F"/>
<path d="M0 251.139C0 251.139 45.7332 243.849 49.9006 284.868C54.068 325.888 137.841 331.575 137.841 331.575C137.841 331.575 137.273 331.95 136.269 332.621C67.0981 378.078 0.976553 361.566 10.9408 301.227C14.6539 278.788 14.3473 256.259 0 251.139Z" fill="#8ED16F"/>
<g opacity="0.3">
<path opacity="0.3" d="M0 251.139C0 251.139 45.7332 243.849 49.9006 284.868C54.068 325.888 137.841 331.575 137.841 331.575C137.841 331.575 137.273 331.95 136.269 332.621C67.0981 378.078 0.976553 361.566 10.9408 301.227C14.6539 278.788 14.3473 256.259 0 251.139Z" fill="white"/>
</g>
<path d="M59.808 250.633C66.7535 250.633 72.384 235.932 72.384 217.796C72.384 199.661 66.7535 184.959 59.808 184.959C52.8625 184.959 47.2321 199.661 47.2321 217.796C47.2321 235.932 52.8625 250.633 59.808 250.633Z" fill="#8ED16F"/>
<path opacity="0.3" d="M59.808 250.633C66.7535 250.633 72.384 235.932 72.384 217.796C72.384 199.661 66.7535 184.959 59.808 184.959C52.8625 184.959 47.2321 199.661 47.2321 217.796C47.2321 235.932 52.8625 250.633 59.808 250.633Z" fill="black"/>
<path d="M58.659 337.054C61.9693 333.741 58.68 325.078 51.3121 317.704C43.9442 310.33 35.2877 307.038 31.9774 310.351C28.667 313.664 31.9563 322.327 39.3242 329.701C46.6922 337.075 55.3486 340.367 58.659 337.054Z" fill="#8ED16F"/>
<path opacity="0.3" d="M58.659 337.054C61.9693 333.741 58.68 325.078 51.3121 317.704C43.9442 310.33 35.2877 307.038 31.9774 310.351C28.667 313.664 31.9563 322.327 39.3242 329.701C46.6922 337.075 55.3486 340.367 58.659 337.054Z" fill="black"/>
<path d="M410.997 150.838H113.297C109.7 150.838 106.249 152.268 103.706 154.814C101.162 157.36 99.733 160.812 99.733 164.413V339.042C99.733 342.642 101.162 346.095 103.706 348.64C106.249 351.186 109.7 352.616 113.297 352.616H410.997C414.594 352.616 418.044 351.186 420.588 348.64C423.132 346.095 424.561 342.642 424.561 339.042V164.413C424.561 160.812 423.132 157.36 420.588 154.814C418.044 152.268 414.594 150.838 410.997 150.838Z" fill="url(#paint0_linear)"/>
<path d="M406.648 153.213H117.64C109.861 153.213 103.554 159.525 103.554 167.311V336.144C103.554 343.93 109.861 350.241 117.64 350.241H406.648C414.428 350.241 420.734 343.93 420.734 336.144V167.311C420.734 159.525 414.428 153.213 406.648 153.213Z" fill="#FE0155"/>
<path d="M420.734 187.692H103.554V223.814H420.734V187.692Z" fill="#FE0155"/>
<path opacity="0.3" d="M420.734 187.692H103.554V223.814H420.734V187.692Z" fill="black"/>
<path d="M390.66 250.633H133.634V268.146H390.66V250.633Z" fill="#D6D6E3"/>
<path d="M154.959 337.11C168.853 337.11 180.117 325.837 180.117 311.932C180.117 298.027 168.853 286.755 154.959 286.755C141.065 286.755 129.802 298.027 129.802 311.932C129.802 325.837 141.065 337.11 154.959 337.11Z" fill="#FE0155"/>
<path opacity="0.3" d="M154.959 337.11C168.853 337.11 180.117 325.837 180.117 311.932C180.117 298.027 168.853 286.755 154.959 286.755C141.065 286.755 129.802 298.027 129.802 311.932C129.802 325.837 141.065 337.11 154.959 337.11Z" fill="black"/>
<path d="M402.702 104.631C403.108 105.916 403.971 107.007 405.126 107.699C410.344 111.148 421.688 110.415 423.051 110.415C423.34 110.415 423.721 110.932 424.141 111.802C426.145 115.938 429.251 128.064 429.461 130.791C429.739 134.093 432.805 149.542 437.824 155.298C437.977 155.475 438.13 155.639 438.278 155.793C443.201 160.742 448.975 155.298 448.975 155.298L449.804 152.418C449.571 153.554 449.31 154.878 449.048 156.361C448.918 157.105 448.787 157.895 448.662 158.708C447.914 163.286 447.521 167.916 447.487 172.555C447.474 174.24 447.546 175.924 447.703 177.601C447.748 178.067 447.799 178.527 447.862 178.976C448.118 181.019 448.243 183.076 448.237 185.135C448.191 197.363 445.074 212.574 445.074 212.574L445.193 212.535C445.12 212.915 445.074 213.103 445.074 213.103L445.256 213.046C445.169 213.61 445.086 214.188 445.006 214.779C443.95 222.45 443.342 231.996 443.053 237.508C442.903 240.415 443.032 243.33 443.439 246.213L448.98 285.255V303.437C448.962 306.193 449.298 308.939 449.98 311.608C451.785 318.478 450.298 342.457 449.463 353.832C449.23 356.935 449.049 359.105 448.997 359.73V359.918L449.156 359.855C449.156 359.986 449.156 360.054 449.156 360.054C449.393 359.953 449.641 359.88 449.894 359.838C447.697 363.248 443.717 368.884 440.657 369.833C438.853 370.383 437.249 371.447 436.041 372.896L435.962 373.004L435.848 373.163C435.47 373.67 435.24 374.272 435.184 374.902C435.14 374.793 435.105 374.681 435.082 374.566C434.849 375.834 435.61 376.993 438 377.555C439.393 377.821 440.812 377.936 442.23 377.896C450.519 377.896 465.23 375.345 466.854 372.6V363.134L467.12 363.219V363.304L468.137 363.64L470.924 354.275C474.269 351.798 471.492 307.46 470.924 297.272C470.413 287.988 476.153 251.054 477.17 244.548L477.034 244.383L477.187 243.434C477.391 243.583 477.581 243.75 477.755 243.934C478.088 244.331 478.379 244.761 478.623 245.218C479.103 246.031 479.515 246.883 479.855 247.764C485.465 261.765 487.991 301.801 487.991 305.392V343.042C487.98 346.757 488.496 350.455 489.524 354.025C490.039 355.904 490.438 357.813 490.717 359.742C490.836 360.497 490.938 361.247 491.035 361.963C491.131 362.679 491.228 363.498 491.301 364.168C491.301 364.344 491.341 364.515 491.358 364.674C491.375 364.833 491.358 364.827 491.358 364.907C491.511 366.39 491.591 367.361 491.591 367.361C491.612 367.28 491.651 367.204 491.704 367.14L491.733 367.498C491.773 367.362 491.849 367.24 491.954 367.146C492.185 366.919 492.436 366.713 492.704 366.532V371.316L492.567 371.214V372.038C498.347 376.402 507.755 377.72 514.977 377.669C519.661 377.669 523.454 377.101 524.771 376.441C526.656 375.515 525.623 373.356 523.908 371.703C522.579 370.418 520.848 369.43 519.752 369.555C517.924 369.754 511.673 362.668 508.397 358.787L508.766 358.622L509.288 358.395V295.619C509.288 295.619 510.128 270.833 512.632 246.321C513.82 233.964 512.359 221.496 508.346 209.75L508.266 209.517L509.027 209.637C509.833 209.762 510.265 209.836 510.265 209.836C510.265 209.836 510.265 209.642 510.214 209.267H510.265C510.265 209.267 509.288 198.636 509.277 185.283C509.277 170.146 510.554 151.69 515.84 141.247C518.883 135.235 519.9 130.45 519.814 126.678C519.947 123.358 518.992 120.085 517.095 117.359C516.299 116.261 515.217 115.404 513.966 114.881L513.859 114.819H513.802C512.889 114.449 511.914 114.256 510.929 114.251H499.511C498.19 114.252 496.891 113.909 495.741 113.256L491.273 110.722C489.785 107.466 489.57 103.432 489.888 99.6476C489.888 99.3465 489.944 99.0453 489.973 98.7498L490.296 98.4089C490.546 98.1418 490.779 97.8407 491.006 97.585C491.001 97.8093 490.984 98.0331 490.955 98.2555C490.898 98.6135 490.802 98.8237 490.648 98.8692C493.09 98.551 495.815 98.068 497.314 96.1815C497.376 96.1077 497.433 96.0281 497.49 95.9486C497.933 95.231 498.3 94.4693 498.586 93.6757C498.796 93.1335 499.076 92.6215 499.42 92.1529C499.795 91.6642 500.283 91.2665 500.686 90.8005L500.755 90.721C502.191 89.0163 502.271 86.573 502.288 84.3456C502.316 78.9362 502.157 72.9813 498.54 68.9243C495.537 65.5491 490.745 64.2706 486.197 64.1229C481.649 63.9752 477.113 64.7934 472.571 64.8161C469.482 64.8161 465.758 64.765 464.054 67.3219C463.22 68.5777 463.118 70.2198 462.209 71.4244C461.687 72.1177 460.886 72.7143 460.841 73.578C460.835 73.9765 460.937 74.3692 461.136 74.7144V74.7542C462.238 76.9248 464.577 78.2771 467.018 78.7033C466.606 79.2004 466.226 79.7243 465.883 80.2715C464.392 82.6562 463.605 85.4137 463.612 88.2265C463.612 88.5561 463.612 88.88 463.646 89.2038C463.899 93.0243 465.601 96.6036 468.404 99.2101C468.358 99.5283 468.313 99.8465 468.262 100.159L468.364 100.25C468.686 100.542 469.02 100.818 469.369 101.08L469.494 101.176C469.494 101.375 469.494 101.574 469.494 101.744C469.494 102.074 469.494 102.409 469.46 102.733C469.425 103.057 469.46 103.256 469.425 103.517L469.352 103.455L463.805 98.818L454.885 90.5562C454.885 90.5562 432.583 74.311 431.465 82.033C431.33 83.4044 431.708 84.7773 432.527 85.8855C436.62 92.1358 450.695 97.4543 450.695 97.4543C450.695 97.4543 459.087 106.335 464.702 115.91C464.503 116.018 464.304 116.12 464.094 116.217C459.098 118.541 451.808 117.558 451.808 117.558C443.388 118.87 442.627 128.104 442.673 131.837C442.673 132.013 442.673 132.184 442.673 132.337C442.673 132.49 442.673 132.524 442.673 132.61L431.499 106.353L431.465 106.273C431.1 105.418 430.526 104.669 429.796 104.095C429.066 103.521 428.202 103.14 427.286 102.989C419.814 101.733 401.141 99.1135 402.702 104.631ZM449.48 359.759C449.643 359.72 449.808 359.69 449.974 359.668L449.923 359.747L449.48 359.759Z" fill="url(#paint1_linear)"/>
<path d="M505.308 354.389C505.308 354.389 515.891 367.702 518.338 367.43C520.785 367.157 526.48 372.589 523.227 374.248C519.973 375.907 501.243 376.964 492 369.901V359.259L505.308 354.389Z" fill="#ACA9C9"/>
<path d="M451.83 355.202C451.83 355.202 445.585 366.339 441.247 367.702C436.91 369.066 433.106 373.953 438.806 375.311C444.506 376.669 464.866 373.68 466.763 370.418V356.014L451.83 355.202Z" fill="#ACA9C9"/>
<path d="M443.99 245.792L449.384 284.306V302.21C449.367 304.926 449.695 307.634 450.36 310.267C452.12 317.046 450.672 340.695 449.855 351.917C449.588 355.577 449.384 357.918 449.384 357.918C452.909 356.287 467.841 361.446 467.841 361.446L469.352 356.304L470.555 352.213C473.814 349.77 471.123 306.034 470.555 295.96C470.186 289.079 473.252 266.771 475.217 253.401C475.784 249.622 476.244 246.582 476.523 244.752C476.699 243.616 476.795 242.985 476.795 242.985C477.393 243.473 477.891 244.074 478.26 244.752C478.727 245.555 479.128 246.395 479.458 247.264C484.92 261.077 487.406 300.568 487.406 304.085V341.224C487.395 344.888 487.898 348.535 488.9 352.059C489.572 354.63 490.063 357.244 490.37 359.884C490.756 362.833 490.938 365.208 490.938 365.208C491.211 363.577 508.039 356.242 508.039 356.242V294.306C508.039 294.306 508.851 269.873 511.298 245.679C512.35 234.673 511.29 223.568 508.175 212.961C507.5 210.648 506.824 208.688 506.239 207.137C505.246 204.494 504.536 203.034 504.536 203.034H449.1C448.168 203.21 447.396 205.085 446.698 207.932C446.244 209.841 445.846 212.182 445.5 214.751C444.472 222.314 443.882 231.729 443.598 237.172C443.455 240.052 443.586 242.938 443.99 245.792Z" fill="#0B0928"/>
<g opacity="0.1">
<path opacity="0.1" d="M507.062 356.418V294.482C507.062 294.482 507.874 270.049 510.321 245.855C512.768 221.66 503.508 203.205 503.508 203.205H504.593C504.593 203.205 513.819 221.677 511.406 245.855C508.993 270.032 508.147 294.482 508.147 294.482V356.418C508.147 356.418 491.318 363.753 491.046 365.384C491.046 365.384 491.046 365.02 490.961 364.395C494.628 361.844 507.062 356.418 507.062 356.418Z" fill="black"/>
<path opacity="0.1" d="M451.013 357.747C450.501 357.758 449.995 357.862 449.52 358.054V357.781C450.016 357.732 450.515 357.72 451.013 357.747Z" fill="black"/>
<path opacity="0.1" d="M469.607 352.349C472.866 349.906 470.175 306.171 469.607 296.096C469.039 286.022 475.853 243.127 475.853 243.127C476.209 243.403 476.525 243.728 476.789 244.093C475.79 250.503 470.203 286.942 470.697 296.096C471.265 306.148 473.956 349.883 470.697 352.349L467.983 361.583L466.995 361.253L469.607 352.349Z" fill="black"/>
</g>
<path d="M455.084 135.979L449.406 156.083C449.406 156.083 443.433 161.765 438.551 156.083C433.668 150.4 430.659 135.167 430.363 131.905C430.068 128.644 425.747 111.802 424.118 111.802C422.489 111.802 406.205 112.887 404.303 106.12C402.782 100.676 420.961 103.279 428.24 104.5C429.136 104.653 429.979 105.03 430.691 105.596C431.403 106.162 431.96 106.9 432.311 107.739L443.473 134.417C443.473 134.417 449.383 127.558 455.084 135.979Z" fill="#F7C4A7"/>
<path d="M491.727 89.255C491.727 89.255 484.67 109.086 493.629 116.149C502.588 123.211 461.59 125.115 461.59 125.115L467.154 119.819C467.154 119.819 471.089 104.199 468.375 91.1585L491.727 89.255Z" fill="#F7C4A7"/>
<path opacity="0.1" d="M483.04 116.149C483.04 116.149 490.234 114.381 490.234 112.484L496.61 116.149H512.626C512.626 116.149 524.3 122.666 514.528 142.23C504.757 161.793 509.101 209.847 509.101 209.847C509.101 209.847 474.359 203.597 445.585 213.109C445.585 213.109 449.929 191.647 448.299 179.425C446.67 167.203 451.013 150.088 451.013 150.088L453.454 139.763C453.454 139.763 453.318 130.104 443.274 135.008C443.274 135.008 441.781 121.018 452.097 119.387C452.097 119.387 464.02 121.018 467.569 115.041C467.569 115.063 475.444 119.683 483.04 116.149Z" fill="black"/>
<path d="M483.04 115.609C483.04 115.609 490.234 113.842 490.234 111.944L494.907 114.631C496.023 115.272 497.288 115.609 498.574 115.609H509.776C510.947 115.605 512.102 115.881 513.146 116.412C514.189 116.944 515.091 117.716 515.778 118.666C518.349 122.285 520.655 129.422 514.528 141.69C504.757 161.248 509.101 209.307 509.101 209.307C509.101 209.307 474.359 203.057 445.585 212.569C445.585 212.569 449.929 191.107 448.299 178.885C446.67 166.663 451.013 149.588 451.013 149.588L453.454 139.263C453.454 139.263 453.318 129.604 443.274 134.508C443.274 134.508 441.821 120.904 451.672 118.961C451.945 118.9 452.227 118.881 452.506 118.904C454.613 119.126 464.429 119.836 467.575 114.512C467.569 114.518 475.444 119.137 483.04 115.609Z" fill="#6D6D6D"/>
<path opacity="0.1" d="M510.458 140.326C510.458 140.326 501.771 145.758 487.656 140.326C487.656 140.326 472.185 134.644 467.296 123.484C462.408 112.324 491.994 125.388 491.994 125.388C491.994 125.388 498.239 125.388 500.136 124.03C502.032 122.672 515.34 134.348 510.458 140.326Z" fill="black"/>
<path d="M510.458 139.241C510.458 139.241 501.771 144.673 487.656 139.241C487.656 139.241 472.185 133.559 467.296 122.399C462.408 111.239 451.013 99.0169 451.013 99.0169C451.013 99.0169 431.198 91.4085 432.277 83.8058C433.356 76.2031 455.078 92.2268 455.078 92.2268L463.765 100.375L491.994 124.28C491.994 124.28 498.239 124.28 500.136 122.922C502.032 121.564 515.34 133.263 510.458 139.241Z" fill="#F7C4A7"/>
<path opacity="0.1" d="M468.114 91.9711L491.455 90.0675C490.255 93.6588 489.438 97.3672 489.019 101.131C486.305 103.947 482.596 105.584 478.688 105.69C474.781 105.796 470.988 104.363 468.125 101.699C468.72 98.4832 468.716 95.1853 468.114 91.9711Z" fill="black"/>
<path d="M478.566 104.875C486.81 104.875 493.493 98.1871 493.493 89.9369C493.493 81.6866 486.81 74.9985 478.566 74.9985C470.323 74.9985 463.64 81.6866 463.64 89.9369C463.64 98.1871 470.323 104.875 478.566 104.875Z" fill="#F7C4A7"/>
<path opacity="0.1" d="M486.759 93.1814C485.885 91.7381 487.662 89.8573 487.077 88.2777C486.538 86.823 484.392 86.573 483.671 85.215C483.103 84.1184 483.671 82.7717 483.444 81.5614C483.12 79.9988 481.439 79.0272 479.844 78.9476C478.249 78.8681 476.71 79.4647 475.194 79.9761C472.724 80.8113 470.124 81.4534 467.535 81.158C464.946 80.8625 462.363 79.4533 461.21 77.1407C461.021 76.8038 460.922 76.4244 460.92 76.0384C460.966 75.186 461.749 74.6008 462.255 73.9189C463.14 72.7313 463.243 71.1119 464.049 69.8732C465.695 67.3504 469.312 67.4129 472.321 67.4015C476.75 67.4015 481.155 66.5719 485.584 66.7197C490.013 66.8674 494.668 68.1231 497.603 71.4529C501.124 75.4588 501.283 81.3227 501.254 86.6639C501.254 88.8629 501.163 91.2551 499.761 92.9541C499.352 93.4484 498.853 93.8575 498.461 94.3632C497.609 95.4997 497.382 96.9543 496.582 98.1078C495.162 100.159 492.391 100.659 489.922 100.989C490.648 100.892 490.047 96.0224 489.922 95.5735C489.445 93.3348 488.928 93.3802 486.759 93.1814Z" fill="black"/>
<path d="M486.759 92.6415C485.885 91.1983 487.662 89.3175 487.077 87.7379C486.538 86.2832 484.392 86.0332 483.671 84.6752C483.103 83.5785 483.671 82.2319 483.444 81.0216C483.12 79.459 481.439 78.4873 479.844 78.4078C478.249 78.3282 476.71 78.9249 475.194 79.4363C472.724 80.2715 470.124 80.9136 467.535 80.6181C464.946 80.3227 462.363 78.9135 461.21 76.6009C461.021 76.264 460.922 75.8846 460.92 75.4985C460.966 74.6462 461.749 74.061 462.255 73.3791C463.14 72.1915 463.243 70.5721 464.049 69.3334C465.695 66.8106 469.312 66.8731 472.321 66.8617C476.75 66.8617 481.155 66.0321 485.584 66.1798C490.013 66.3276 494.668 67.5833 497.603 70.9131C501.124 74.919 501.283 80.7829 501.254 86.1241C501.254 88.3231 501.163 90.7153 499.761 92.4143C499.352 92.9086 498.853 93.3177 498.461 93.8234C497.609 94.9598 497.382 96.4145 496.582 97.568C495.162 99.6192 492.391 100.119 489.922 100.449C490.648 100.352 490.047 95.4826 489.922 95.0337C489.445 92.7665 488.928 92.8347 486.759 92.6415Z" fill="#281C1C"/>
<path opacity="0.1" d="M510.321 141.008C510.321 141.008 502.992 121.99 497.291 121.45C491.591 120.91 508.147 121.45 508.147 121.45L513.575 131.229L510.321 141.008Z" fill="black"/>
<path d="M510.866 141.008C510.866 141.008 503.537 121.99 497.836 121.45C492.136 120.91 508.692 121.45 508.692 121.45L514.12 131.229L510.866 141.008Z" fill="#5A5A5A"/>
<path d="M490.348 359.929C490.734 362.878 490.915 365.253 490.915 365.253C491.188 363.623 508.016 356.287 508.016 356.287V351.872C507.588 351.856 507.158 351.877 506.733 351.934C503.468 352.372 500.442 353.957 497.649 355.651C495.29 357.2 492.853 358.628 490.348 359.929Z" fill="#24406D"/>
<path d="M449.383 357.918C452.909 356.287 467.841 361.446 467.841 361.446L469.352 356.304C466.746 355.776 464.157 355.116 461.613 354.332C460.425 353.988 459.264 353.559 458.138 353.048C457.386 352.646 456.613 352.286 455.822 351.969C453.874 351.298 451.848 351.582 449.849 351.917C449.588 355.577 449.383 357.918 449.383 357.918Z" fill="#24406D"/>
<path opacity="0.4" d="M523.079 373.402C523.306 373.304 523.508 373.157 523.669 372.969C523.831 372.782 523.947 372.561 524.01 372.322C524.111 372.697 524.072 373.096 523.901 373.444C523.73 373.792 523.438 374.066 523.079 374.214C519.82 375.845 501.095 376.93 491.852 369.867V369.055C501.095 376.118 519.82 375.032 523.079 373.402Z" fill="white"/>
<path opacity="0.4" d="M438.664 374.487C444.342 375.845 464.724 372.856 466.621 369.595V370.407C464.719 373.669 444.364 376.657 438.664 375.299C436.336 374.731 435.593 373.595 435.825 372.35C436.007 373.271 436.859 374.032 438.664 374.487Z" fill="white"/>
<path opacity="0.1" d="M471.776 176.595C471.776 176.595 465.803 174.692 464.174 176.595C462.544 178.499 448.617 182.959 448.617 182.959" fill="black"/>
<path d="M404.195 101.955H433.236V101.341H404.195V101.955Z" fill="#8ED16F"/>
<path d="M404.195 102.568H433.236V101.955H404.195V102.568Z" fill="#8ED16F"/>
<path opacity="0.1" d="M404.195 102.568H433.236V101.955H404.195V102.568Z" fill="black"/>
<path d="M404.195 103.182H433.236V102.568H404.195V103.182Z" fill="#8ED16F"/>
<path d="M404.195 103.79H433.236V103.176H404.195V103.79Z" fill="#8ED16F"/>
<path opacity="0.1" d="M404.195 103.79H433.236V103.176H404.195V103.79Z" fill="black"/>
<path d="M404.195 104.404H433.236V103.79H404.195V104.404Z" fill="#8ED16F"/>
<path d="M404.195 105.012H433.236V104.398H404.195V105.012Z" fill="#8ED16F"/>
<path opacity="0.1" d="M404.195 105.012H433.236V104.398H404.195V105.012Z" fill="black"/>
<path d="M404.195 105.625H433.236V105.012H404.195V105.625Z" fill="#8ED16F"/>
<path d="M404.195 106.233H433.236V105.62H404.195V106.233Z" fill="#8ED16F"/>
<path opacity="0.1" d="M404.195 106.233H433.236V105.62H404.195V106.233Z" fill="black"/>
<path d="M404.195 97.0679H433.236V96.4543H404.195V97.0679Z" fill="#8ED16F"/>
<path d="M424.737 82.5389L447.065 101.124L447.457 100.652L425.129 82.0671L424.737 82.5389Z" fill="#8ED16F"/>
<path d="M404.38 72.7612L426.708 91.3459L427.1 90.8741L404.772 72.2894L404.38 72.7612Z" fill="#8ED16F"/>
<path d="M404.195 97.6759H433.236V97.0623H404.195V97.6759Z" fill="#8ED16F"/>
<path opacity="0.1" d="M404.195 97.6759H433.236V97.0623H404.195V97.6759Z" fill="black"/>
<path d="M404.195 98.2953H433.236V97.6816H404.195V98.2953Z" fill="#8ED16F"/>
<path d="M404.195 98.9033H433.236V98.2896H404.195V98.9033Z" fill="#8ED16F"/>
<path opacity="0.1" d="M404.195 98.9033H433.236V98.2896H404.195V98.9033Z" fill="black"/>
<path d="M404.195 99.5113H433.236V98.8976H404.195V99.5113Z" fill="#8ED16F"/>
<path d="M404.195 100.125H433.236V99.5112H404.195V100.125Z" fill="#8ED16F"/>
<path opacity="0.1" d="M404.195 100.125H433.236V99.5112H404.195V100.125Z" fill="black"/>
<path d="M404.195 100.733H433.236V100.119H404.195V100.733Z" fill="#8ED16F"/>
<path d="M404.195 101.347H433.236V100.733H404.195V101.347Z" fill="#8ED16F"/>
<path opacity="0.1" d="M404.195 101.347H433.236V100.733H404.195V101.347Z" fill="black"/>
<path d="M400.514 125.173L410.919 127.107L414.685 106.811L404.28 104.877L400.514 125.173Z" fill="#8ED16F"/>
<path d="M409.877 116.453C410.315 114.093 409.715 112.002 408.538 111.783C407.36 111.564 406.05 113.3 405.612 115.66C405.174 118.021 405.774 120.112 406.952 120.331C408.129 120.549 409.439 118.813 409.877 116.453Z" fill="#8ED16F"/>
<path opacity="0.1" d="M409.877 116.453C410.315 114.093 409.715 112.002 408.538 111.783C407.36 111.564 406.05 113.3 405.612 115.66C405.174 118.021 405.774 120.112 406.952 120.331C408.129 120.549 409.439 118.813 409.877 116.453Z" fill="black"/>
<path d="M402.295 168.013L412.7 169.947L416.466 149.651L406.061 147.717L402.295 168.013Z" fill="#8ED16F"/>
<path d="M411.652 159.288C412.09 156.928 411.49 154.837 410.313 154.618C409.135 154.399 407.825 156.135 407.387 158.496C406.949 160.856 407.549 162.947 408.727 163.166C409.904 163.385 411.214 161.649 411.652 159.288Z" fill="#8ED16F"/>
<path opacity="0.1" d="M411.652 159.288C412.09 156.928 411.49 154.837 410.313 154.618C409.135 154.399 407.825 156.135 407.387 158.496C406.949 160.856 407.549 162.947 408.727 163.166C409.904 163.385 411.214 161.649 411.652 159.288Z" fill="black"/>
<path d="M364.66 62.7141L359.623 72.0291L377.764 81.8539L382.801 72.5388L364.66 62.7141Z" fill="#8ED16F"/>
<path d="M376.801 74.7701C377.376 73.7152 376.131 71.9258 374.02 70.7735C371.909 69.6212 369.731 69.5422 369.157 70.5971C368.582 71.652 369.827 73.4414 371.938 74.5937C374.049 75.746 376.226 75.825 376.801 74.7701Z" fill="#8ED16F"/>
<path opacity="0.1" d="M376.801 74.7701C377.376 73.7152 376.131 71.9258 374.02 70.7735C371.909 69.6212 369.731 69.5422 369.157 70.5971C368.582 71.652 369.827 73.4414 371.938 74.5937C374.049 75.746 376.226 75.825 376.801 74.7701Z" fill="black"/>
<path d="M324.827 246.545L319.79 255.86L337.931 265.684L342.968 256.369L324.827 246.545Z" fill="#8ED16F"/>
<path d="M335.141 258.308C335.711 257.254 334.463 255.473 332.353 254.33C330.243 253.188 328.071 253.116 327.501 254.17C326.931 255.225 328.179 257.005 330.288 258.148C332.398 259.291 334.571 259.362 335.141 258.308Z" fill="#8ED16F"/>
<path opacity="0.1" d="M335.141 258.308C335.711 257.254 334.463 255.473 332.353 254.33C330.243 253.188 328.071 253.116 327.501 254.17C326.931 255.225 328.179 257.005 330.288 258.148C332.398 259.291 334.571 259.362 335.141 258.308Z" fill="black"/>
<path d="M300.456 94.8415L295.419 104.157L313.56 113.981L318.597 104.666L300.456 94.8415Z" fill="#8ED16F"/>
<path d="M310.765 106.596C311.335 105.542 310.087 103.761 307.977 102.618C305.867 101.476 303.695 101.404 303.125 102.459C302.555 103.513 303.803 105.294 305.912 106.436C308.022 107.579 310.195 107.651 310.765 106.596Z" fill="#8ED16F"/>
<path opacity="0.1" d="M310.765 106.596C311.335 105.542 310.087 103.761 307.977 102.618C305.867 101.476 303.695 101.404 303.125 102.459C302.555 103.513 303.803 105.294 305.912 106.436C308.022 107.579 310.195 107.651 310.765 106.596Z" fill="black"/>
<path d="M331.001 62.7117L325.964 72.0267L344.105 81.8514L349.142 72.5364L331.001 62.7117Z" fill="#8ED16F"/>
<path d="M341.31 74.4665C341.88 73.4122 340.632 71.6312 338.522 70.4887C336.412 69.3461 334.24 69.2746 333.67 70.3289C333.1 71.3832 334.348 73.1641 336.457 74.3066C338.567 75.4492 340.74 75.5208 341.31 74.4665Z" fill="#8ED16F"/>
<path opacity="0.1" d="M341.31 74.4665C341.88 73.4122 340.632 71.6312 338.522 70.4887C336.412 69.3461 334.24 69.2746 333.67 70.3289C333.1 71.3832 334.348 73.1641 336.457 74.3066C338.567 75.4492 340.74 75.5208 341.31 74.4665Z" fill="black"/>
<path d="M361.497 100.623L350.977 101.774L353.219 122.295L363.739 121.144L361.497 100.623Z" fill="#8ED16F"/>
<path d="M357.691 115.797C358.882 115.667 359.636 113.627 359.375 111.24C359.115 108.854 357.938 107.025 356.747 107.155C355.556 107.286 354.803 109.326 355.063 111.712C355.324 114.099 356.501 115.928 357.691 115.797Z" fill="#8ED16F"/>
<path opacity="0.1" d="M357.691 115.797C358.882 115.667 359.636 113.627 359.375 111.24C359.115 108.854 357.938 107.025 356.747 107.155C355.556 107.286 354.803 109.326 355.063 111.712C355.324 114.099 356.501 115.928 357.691 115.797Z" fill="black"/>
<path d="M433.627 212.991L423.106 214.143L425.348 234.664L435.869 233.512L433.627 212.991Z" fill="#8ED16F"/>
<path d="M429.826 228.166C431.016 228.036 431.77 225.996 431.51 223.609C431.249 221.223 430.072 219.394 428.881 219.524C427.691 219.654 426.937 221.695 427.198 224.081C427.458 226.467 428.635 228.296 429.826 228.166Z" fill="#8ED16F"/>
<path opacity="0.1" d="M429.826 228.166C431.016 228.036 431.77 225.996 431.51 223.609C431.249 221.223 430.072 219.394 428.881 219.524C427.691 219.654 426.937 221.695 427.198 224.081C427.458 226.467 428.635 228.296 429.826 228.166Z" fill="black"/>
<path d="M320.303 144.215L315.266 153.53L333.407 163.354L338.444 154.039L320.303 144.215Z" fill="#8ED16F"/>
<path d="M330.608 155.977C331.178 154.923 329.93 153.142 327.82 151.999C325.71 150.857 323.538 150.785 322.968 151.839C322.398 152.894 323.646 154.675 325.755 155.817C327.865 156.96 330.038 157.031 330.608 155.977Z" fill="#8ED16F"/>
<path opacity="0.1" d="M330.608 155.977C331.178 154.923 329.93 153.142 327.82 151.999C325.71 150.857 323.538 150.785 322.968 151.839C322.398 152.894 323.646 154.675 325.755 155.817C327.865 156.96 330.038 157.031 330.608 155.977Z" fill="black"/>
<path d="M274.525 131.13L269.488 140.445L287.629 150.27L292.666 140.954L274.525 131.13Z" fill="#8ED16F"/>
<path d="M286.34 143.511C286.915 142.456 285.669 140.667 283.559 139.514C281.448 138.362 279.27 138.283 278.695 139.338C278.12 140.393 279.366 142.182 281.476 143.334C283.587 144.487 285.765 144.566 286.34 143.511Z" fill="#8ED16F"/>
<path opacity="0.1" d="M286.34 143.511C286.915 142.456 285.669 140.667 283.559 139.514C281.448 138.362 279.27 138.283 278.695 139.338C278.12 140.393 279.366 142.182 281.476 143.334C283.587 144.487 285.765 144.566 286.34 143.511Z" fill="black"/>
<path d="M259.863 351.43L254.826 360.745L272.967 370.57L278.004 361.255L259.863 351.43Z" fill="#8ED16F"/>
<path d="M270.171 363.187C270.741 362.133 269.493 360.352 267.383 359.21C265.273 358.067 263.101 357.996 262.531 359.05C261.961 360.104 263.209 361.885 265.319 363.028C267.428 364.17 269.601 364.242 270.171 363.187Z" fill="#8ED16F"/>
<path opacity="0.1" d="M270.171 363.187C270.741 362.133 269.493 360.352 267.383 359.21C265.273 358.067 263.101 357.996 262.531 359.05C261.961 360.104 263.209 361.885 265.319 363.028C267.428 364.17 269.601 364.242 270.171 363.187Z" fill="black"/>
<path d="M246.665 355.02L244.734 365.434L265.015 369.2L266.945 358.786L246.665 355.02Z" fill="#8ED16F"/>
<path opacity="0.05" d="M246.665 355.02L244.734 365.434L265.015 369.2L266.945 358.786L246.665 355.02Z" fill="black"/>
<path d="M260.09 363.035C260.308 361.856 258.573 360.546 256.215 360.108C253.856 359.67 251.767 360.27 251.549 361.449C251.33 362.628 253.065 363.938 255.424 364.376C257.782 364.814 259.871 364.214 260.09 363.035Z" fill="#8ED16F"/>
<path opacity="0.1" d="M260.09 363.035C260.308 361.856 258.573 360.546 256.215 360.108C253.856 359.67 251.767 360.27 251.549 361.449C251.33 362.628 253.065 363.938 255.424 364.376C257.782 364.814 259.871 364.214 260.09 363.035Z" fill="black"/>
<path d="M248.565 361.265L246.634 371.679L266.915 375.445L268.845 365.031L248.565 361.265Z" fill="#8ED16F"/>
<path d="M261.984 369.28C262.203 368.101 260.468 366.791 258.109 366.353C255.751 365.915 253.662 366.516 253.443 367.694C253.225 368.873 254.959 370.183 257.318 370.621C259.677 371.059 261.766 370.459 261.984 369.28Z" fill="#8ED16F"/>
<path opacity="0.1" d="M261.984 369.28C262.203 368.101 260.468 366.791 258.109 366.353C255.751 365.915 253.662 366.516 253.443 367.694C253.225 368.873 254.959 370.183 257.318 370.621C259.677 371.059 261.766 370.459 261.984 369.28Z" fill="black"/>
<path d="M281.262 378.203L276.225 387.518L294.366 397.343L299.403 388.028L281.262 378.203Z" fill="#8ED16F"/>
<path d="M291.575 389.961C292.145 388.906 290.897 387.125 288.787 385.983C286.678 384.84 284.505 384.769 283.935 385.823C283.365 386.877 284.613 388.658 286.723 389.801C288.833 390.943 291.005 391.015 291.575 389.961Z" fill="#8ED16F"/>
<path opacity="0.1" d="M291.575 389.961C292.145 388.906 290.897 387.125 288.787 385.983C286.678 384.84 284.505 384.769 283.935 385.823C283.365 386.877 284.613 388.658 286.723 389.801C288.833 390.943 291.005 391.015 291.575 389.961Z" fill="black"/>
<path d="M268.067 381.786L266.137 392.2L286.417 395.966L288.348 385.552L268.067 381.786Z" fill="#8ED16F"/>
<path opacity="0.05" d="M268.067 381.786L266.137 392.2L286.417 395.966L288.348 385.552L268.067 381.786Z" fill="black"/>
<path d="M281.487 389.801C281.705 388.622 279.97 387.312 277.612 386.874C275.253 386.436 273.164 387.036 272.946 388.215C272.727 389.394 274.462 390.704 276.821 391.142C279.179 391.58 281.268 390.98 281.487 389.801Z" fill="#8ED16F"/>
<path opacity="0.1" d="M281.487 389.801C281.705 388.622 279.97 387.312 277.612 386.874C275.253 386.436 273.164 387.036 272.946 388.215C272.727 389.394 274.462 390.704 276.821 391.142C279.179 391.58 281.268 390.98 281.487 389.801Z" fill="black"/>
<path d="M269.966 388.038L268.036 398.452L288.317 402.218L290.247 391.804L269.966 388.038Z" fill="#8ED16F"/>
<path d="M283.391 396.053C283.61 394.874 281.875 393.564 279.516 393.126C277.158 392.688 275.069 393.288 274.85 394.467C274.632 395.646 276.367 396.956 278.725 397.394C281.084 397.832 283.173 397.231 283.391 396.053Z" fill="#8ED16F"/>
<path opacity="0.1" d="M283.391 396.053C283.61 394.874 281.875 393.564 279.516 393.126C277.158 392.688 275.069 393.288 274.85 394.467C274.632 395.646 276.367 396.956 278.725 397.394C281.084 397.832 283.173 397.231 283.391 396.053Z" fill="black"/>
<path d="M313.368 360.949L308.331 370.264L326.472 380.089L331.509 370.774L313.368 360.949Z" fill="#8ED16F"/>
<path d="M323.67 372.704C324.24 371.65 322.992 369.869 320.882 368.726C318.773 367.584 316.6 367.512 316.03 368.566C315.46 369.621 316.708 371.402 318.818 372.544C320.928 373.687 323.1 373.758 323.67 372.704Z" fill="#8ED16F"/>
<path opacity="0.1" d="M323.67 372.704C324.24 371.65 322.992 369.869 320.882 368.726C318.773 367.584 316.6 367.512 316.03 368.566C315.46 369.621 316.708 371.402 318.818 372.544C320.928 373.687 323.1 373.758 323.67 372.704Z" fill="black"/>
<path d="M300.17 364.536L298.24 374.95L318.52 378.715L320.451 368.301L300.17 364.536Z" fill="#8ED16F"/>
<path opacity="0.05" d="M300.17 364.536L298.24 374.95L318.52 378.715L320.451 368.301L300.17 364.536Z" fill="black"/>
<path d="M313.589 372.55C313.808 371.372 312.073 370.061 309.714 369.623C307.356 369.185 305.267 369.786 305.048 370.965C304.83 372.143 306.565 373.454 308.923 373.892C311.282 374.33 313.371 373.729 313.589 372.55Z" fill="#8ED16F"/>
<path opacity="0.1" d="M313.589 372.55C313.808 371.372 312.073 370.061 309.714 369.623C307.356 369.185 305.267 369.786 305.048 370.965C304.83 372.143 306.565 373.454 308.923 373.892C311.282 374.33 313.371 373.729 313.589 372.55Z" fill="black"/>
<path d="M302.069 370.787L300.139 381.2L320.419 384.966L322.35 374.552L302.069 370.787Z" fill="#8ED16F"/>
<path d="M315.494 378.802C315.712 377.623 313.978 376.313 311.619 375.875C309.261 375.437 307.171 376.038 306.953 377.216C306.734 378.395 308.469 379.705 310.828 380.143C313.186 380.581 315.276 379.981 315.494 378.802Z" fill="#8ED16F"/>
<path opacity="0.1" d="M315.494 378.802C315.712 377.623 313.978 376.313 311.619 375.875C309.261 375.437 307.171 376.038 306.953 377.216C306.734 378.395 308.469 379.705 310.828 380.143C313.186 380.581 315.276 379.981 315.494 378.802Z" fill="black"/>
</g>
<defs>
<linearGradient id="paint0_linear" x1="262.147" y1="352.616" x2="262.147" y2="150.838" gradientUnits="userSpaceOnUse">
<stop stop-color="#808080" stop-opacity="0.25"/>
<stop offset="0.54" stop-color="#808080" stop-opacity="0.12"/>
<stop offset="1" stop-color="#808080" stop-opacity="0.1"/>
</linearGradient>
<linearGradient id="paint1_linear" x1="-364786" y1="237854" x2="-364786" y2="64581.1" gradientUnits="userSpaceOnUse">
<stop stop-color="#808080" stop-opacity="0.25"/>
<stop offset="0.54" stop-color="#808080" stop-opacity="0.12"/>
<stop offset="1" stop-color="#808080" stop-opacity="0.1"/>
</linearGradient>
<clipPath id="clip0">
<rect width="553" height="406" fill="white"/>
</clipPath>
</defs>
</svg>
